<svg xmlns="http://www.w3.org/2000/svg" xmlns:xlink="http://www.w3.org/1999/xlink" viewBox="0 0 220 62.37"><defs><linearGradient id="a" x1="-574.61" y1="115.62" x2="-573.61" y2="115.62" gradientTransform="matrix(29.8, 26.36, 13.9, -56.53, 15514.09, 21691.11)" gradientUnits="userSpaceOnUse"><stop offset="0" stop-color="#4889c8"/><stop offset="1" stop-color="#54bc79"/></linearGradient><linearGradient id="b" x1="-563.89" y1="120.55" x2="-562.89" y2="120.55" gradientTransform="matrix(19.97, 26.36, 9.31, -56.52, 10144.54, 21689.55)" xlink:href="#a"/><linearGradient id="c" x1="-575.83" y1="114.91" x2="-574.83" y2="114.91" gradientTransform="matrix(31.58, 26.36, 14.72, -56.53, 16496.19, 21691.11)" xlink:href="#a"/><linearGradient id="d" x1="-546.19" y1="119.15" x2="-545.19" y2="119.15" gradientTransform="matrix(13.94, 8.16, 6.5, -17.51, 6869.65, 6550.29)" xlink:href="#a"/></defs><path d="M0,6.11,10.85,62.37,7.11,24.72l18.5-1.21,0-6.3L32.88,0l-7,11.46Z" fill="url(#a)"/><path d="M29.59,34.14,32.88,0,27.31,25.33,14.8,26l1,13-5,23.33,7.69-25.44Z" fill="url(#b)"/><path d="M31.77,42.2l.35-6.67-10.19,2.4,0,7.52L10.85,62.37,24.68,44.76Zm1.85-3.05,9.46-3,1-8L33.91,29.48Zm4.06-11.41,7-.9,1-6.56L40.54,20,32.88,0l5.38,19.75Z" fill="url(#c)"/><path d="M47.46,19.32l.8-6.06-6.09-1.72L32.88,0l9.24,14.31-.27,4.46Z" fill="url(#d)"/><path d="M74.1,51.55h0a15.71,15.71,0,0,1-7.23-1.61h0A11.84,11.84,0,0,1,62,45.33h0a13.12,13.12,0,0,1-1.74-6.79h0V23.87h0A12.9,12.9,0,0,1,62,17.12h0a12,12,0,0,1,4.85-4.53h0A15.71,15.71,0,0,1,74.1,11h0a16.13,16.13,0,0,1,7.2,1.53h0a11.55,11.55,0,0,1,4.81,4.41h0a12.23,12.23,0,0,1,1.74,6.55h0c0,.37-.29.6-.85.68h0l-3.72.25H83a.75.75,0,0,1-.45-.13h0a.31.31,0,0,1-.16-.24h0v-.32h0a7.69,7.69,0,0,0-2.26-5.82h0a8.29,8.29,0,0,0-6.07-2.22h0A8.43,8.43,0,0,0,68,17.89h0a7.69,7.69,0,0,0-2.26,5.82h0v15h0A7.69,7.69,0,0,0,68,44.56h0a8.43,8.43,0,0,0,6.1,2.22h0a8.29,8.29,0,0,0,6.07-2.22h0a7.69,7.69,0,0,0,2.26-5.82h0a.58.58,0,0,1,.2-.48h0a.71.71,0,0,1,.65-.12h0l3.72.2h0c.56.08.85.17.85.28h0v.28h0a12.3,12.3,0,0,1-1.74,6.59h0a11.51,11.51,0,0,1-4.81,4.45h0a15.5,15.5,0,0,1-7.2,1.61Zm33.55-29.62h0a7.15,7.15,0,0,1,3.07.65h0a.85.85,0,0,1,.44,1.05h0l-.8,3.67h0q0,.57-.57.57h0a1.68,1.68,0,0,1-.44,0h0a6.14,6.14,0,0,0-1.94-.28h0a6,6,0,0,0-.85,0h0a6.37,6.37,0,0,0-4.37,1.86h0a6.06,6.06,0,0,0-1.74,4.48h0V50.18h0a.82.82,0,0,1-.2.61h0a.86.86,0,0,1-.64.24H95.89a.88.88,0,0,1-.65-.24h0a.86.86,0,0,1-.2-.61h0V23.06h0a.92.92,0,0,1,.2-.6h0a.85.85,0,0,1,.65-.25h3.72a.83.83,0,0,1,.64.25h0a.87.87,0,0,1,.2.6h0v2.63h0q0,.19.09.24h0s.12,0,.2-.12h0a7.88,7.88,0,0,1,6.91-3.88Zm18.95-.16h0a14,14,0,0,1,6,1.21h0a9.11,9.11,0,0,1,4,3.4h0a9.16,9.16,0,0,1,1.37,5h0V50.18h0a.86.86,0,0,1-.2.61h0a.88.88,0,0,1-.65.24h-3.72a.73.73,0,0,1-.6-.24h0a.74.74,0,0,1-.25-.61h0V48.6h0a.27.27,0,0,0-.12-.24h0a.16.16,0,0,0-.2.08h0a11.61,11.61,0,0,1-3.76,2.26h0a13.93,13.93,0,0,1-4.73.77h0a10.57,10.57,0,0,1-6.79-2.1h0q-2.66-2.15-2.66-6.42h0a8.56,8.56,0,0,1,3.07-7h0q3.08-2.51,8.65-2.5h6.26a.25.25,0,0,0,.28-.28h0V31.75h0a5.08,5.08,0,0,0-1.45-3.88h0a6,6,0,0,0-4.37-1.41h0a7.28,7.28,0,0,0-3.75.84h0a4,4,0,0,0-1.9,2.39h0a.91.91,0,0,1-1,.69h0L116,29.85h0a1,1,0,0,1-.6-.24h0a.44.44,0,0,1-.16-.49h0a7.53,7.53,0,0,1,3.63-5.29h0a13.87,13.87,0,0,1,7.72-2.06Zm-1.53,25.14h0a9,9,0,0,0,5.25-1.58h0a4.85,4.85,0,0,0,2.22-4h0V38h0a.25.25,0,0,0-.28-.28H127a9.59,9.59,0,0,0-5.34,1.3h0a4.09,4.09,0,0,0-2,3.63h0a3.59,3.59,0,0,0,1.5,3.15h0a6.39,6.39,0,0,0,3.88,1.1Zm34.39-21.06h0a.86.86,0,0,1-.2.61h0a.88.88,0,0,1-.65.24h-5.74a.24.24,0,0,0-.28.28h0V41.73h0a4.72,4.72,0,0,0,1,3.48h0a4.63,4.63,0,0,0,3.35,1h1.34a.86.86,0,0,1,.64.24h0a.82.82,0,0,1,.21.61h0v3h0a.85.85,0,0,1-.85.89h0L156,51h0c-2.91,0-5.07-.51-6.5-1.54h0q-2.15-1.53-2.14-5.74h0V27h0c0-.19-.1-.28-.29-.28H144a.9.9,0,0,1-.65-.24h0a.86.86,0,0,1-.2-.61h0V23.06h0a.92.92,0,0,1,.2-.6h0a.87.87,0,0,1,.65-.25h3.11c.19,0,.29-.09.29-.28h0v-6.3h0a1,1,0,0,1,.2-.65h0a.93.93,0,0,1,.64-.2h3.52a.92.92,0,0,1,.61.2h0a.88.88,0,0,1,.24.65h0v6.3h0a.24.24,0,0,0,.28.28h5.74a.85.85,0,0,1,.65.25h0a.92.92,0,0,1,.2.6h0ZM169.77,51h0a4,4,0,0,1-2.91-1.13h0a3.76,3.76,0,0,1-1.18-2.83h0a3.52,3.52,0,0,1,1.26-2.71h0a4.1,4.1,0,0,1,2.83-1.13h0a4.25,4.25,0,0,1,2.86,1.13h0a3.52,3.52,0,0,1,1.26,2.71h0a3.75,3.75,0,0,1-1.17,2.79h0A4,4,0,0,1,169.77,51Zm14.87-33.1h0a3.71,3.71,0,0,1-2.67-1h0a3.32,3.32,0,0,1-1.05-2.55h0A3.41,3.41,0,0,1,182,11.79h0a3.77,3.77,0,0,1,2.67-1h0a3.66,3.66,0,0,1,2.66,1h0a3.47,3.47,0,0,1,1,2.58h0a3.37,3.37,0,0,1-1,2.55h0a3.6,3.6,0,0,1-2.66,1ZM182.78,51h0a.76.76,0,0,1-.61-.24h0a.76.76,0,0,1-.24-.61h0V23.06h0a.81.81,0,0,1,.24-.6h0a.74.74,0,0,1,.61-.25h3.76a.79.79,0,0,1,.6.25h0a.82.82,0,0,1,.25.6h0V50.18h0a.77.77,0,0,1-.25.61h0a.81.81,0,0,1-.6.24h-3.76Zm24.73.44h0a12.61,12.61,0,0,1-7.31-2.1h0a11.07,11.07,0,0,1-4.33-5.94h0a20.91,20.91,0,0,1-1.05-6.87h0a20.77,20.77,0,0,1,1-6.79h0a11.05,11.05,0,0,1,4.37-5.86h0a12.69,12.69,0,0,1,7.39-2.14h0a12,12,0,0,1,7.12,2.14h0A11.43,11.43,0,0,1,219,29.69h0a20.78,20.78,0,0,1,1,6.79h0a21.8,21.8,0,0,1-1,7h0a11.46,11.46,0,0,1-4.28,5.94h0a12.45,12.45,0,0,1-7.2,2.1Zm0-4.69h0a6.35,6.35,0,0,0,4-1.29h0a6.83,6.83,0,0,0,2.43-3.56h0a19,19,0,0,0,.64-5.33h0a20.46,20.46,0,0,0-.56-5.25h0a7,7,0,0,0-2.47-3.6h0a6.6,6.6,0,0,0-4.12-1.29h0a6.43,6.43,0,0,0-4,1.29h0a6.82,6.82,0,0,0-2.43,3.6h0a17.44,17.44,0,0,0-.64,5.25h0a18.25,18.25,0,0,0,.64,5.33h0a6.35,6.35,0,0,0,2.39,3.56h0a6.8,6.8,0,0,0,4.16,1.29Z" fill="#fff"/></svg>