<svg xmlns="http://www.w3.org/2000/svg" xmlns:xlink="http://www.w3.org/1999/xlink" viewBox="0 0 1200 800"><defs><clipPath id="a"><rect y="1" width="1200" height="798" fill="none"/></clipPath><radialGradient id="b" cx="955.93" cy="-201.85" r="86.61" gradientTransform="translate(805.93 1093.24) rotate(-137.34)" gradientUnits="userSpaceOnUse"><stop offset="0" stop-color="#243240"/><stop offset="0.31" stop-color="#161f28"/><stop offset="0.75" stop-color="#06080b"/><stop offset="1"/></radialGradient><radialGradient id="c" cx="954.1" cy="-203.31" r="92.03" xlink:href="#b"/><radialGradient id="d" cx="952.1" cy="-204.76" r="97.67" xlink:href="#b"/><radialGradient id="e" cx="949.91" cy="-206.2" r="103.54" xlink:href="#b"/><radialGradient id="f" cx="947.53" cy="-207.63" r="109.65" xlink:href="#b"/><radialGradient id="g" cx="944.95" cy="-209.03" r="115.99" xlink:href="#b"/><radialGradient id="h" cx="942.15" cy="-210.4" r="122.57" xlink:href="#b"/><radialGradient id="i" cx="939.12" cy="-211.72" r="129.39" xlink:href="#b"/><radialGradient id="j" cx="935.85" cy="-213" r="136.44" xlink:href="#b"/><radialGradient id="k" cx="932.33" cy="-214.22" r="143.72" xlink:href="#b"/><radialGradient id="l" cx="928.53" cy="-215.36" r="151.24" xlink:href="#b"/><radialGradient id="m" cx="924.46" cy="-216.42" r="158.98" xlink:href="#b"/><radialGradient id="n" cx="920.09" cy="-217.39" r="166.94" xlink:href="#b"/><radialGradient id="o" cx="915.41" cy="-218.23" r="175.12" xlink:href="#b"/><radialGradient id="p" cx="910.41" cy="-218.95" r="183.5" xlink:href="#b"/><radialGradient id="q" cx="905.06" cy="-219.53" r="192.08" xlink:href="#b"/><radialGradient id="r" cx="899.35" cy="-219.93" r="200.84" xlink:href="#b"/><radialGradient id="s" cx="893.28" cy="-220.16" r="209.76" xlink:href="#b"/><radialGradient id="t" cx="886.81" cy="-220.18" r="218.84" xlink:href="#b"/><radialGradient id="u" cx="879.94" cy="-219.97" r="228.05" xlink:href="#b"/><radialGradient id="v" cx="872.64" cy="-219.51" r="237.38" xlink:href="#b"/><radialGradient id="w" cx="864.9" cy="-218.77" r="246.79" xlink:href="#b"/><radialGradient id="x" cx="857.44" cy="-217.72" r="256.56" xlink:href="#b"/><radialGradient id="y" cx="859.89" cy="-216.34" r="270.58" xlink:href="#b"/><radialGradient id="z" cx="862.99" cy="-214.6" r="285.16" xlink:href="#b"/><radialGradient id="aa" cx="866.8" cy="-212.45" r="300.31" xlink:href="#b"/><radialGradient id="ab" cx="871.39" cy="-209.87" r="316.03" xlink:href="#b"/><radialGradient id="ac" cx="876.82" cy="-206.82" r="332.34" xlink:href="#b"/><radialGradient id="ad" cx="883.17" cy="-203.26" r="349.23" xlink:href="#b"/><radialGradient id="ae" cx="890.49" cy="-199.14" r="366.72" xlink:href="#b"/><radialGradient id="af" cx="898.88" cy="-194.43" r="384.79" xlink:href="#b"/><radialGradient id="ag" cx="908.41" cy="-189.07" r="403.47" xlink:href="#b"/><radialGradient id="ah" cx="919.17" cy="-183.02" r="422.74" xlink:href="#b"/><radialGradient id="ai" cx="931.26" cy="-176.23" r="442.6" xlink:href="#b"/><radialGradient id="aj" cx="944.76" cy="-168.64" r="463.06" xlink:href="#b"/><radialGradient id="ak" cx="959.78" cy="-160.19" r="484.11" xlink:href="#b"/><radialGradient id="al" cx="542.96" cy="1091.19" r="86.61" gradientTransform="translate(470.55 -1148.35) rotate(42.66)" gradientUnits="userSpaceOnUse"><stop offset="0" stop-color="#c2feff"/><stop offset="0.02" stop-color="#b8f2f3"/><stop offset="0.11" stop-color="#7eadae"/><stop offset="0.19" stop-color="#557b7c"/><stop offset="0.25" stop-color="#3b5d5d"/><stop offset="0.28" stop-color="#315151"/><stop offset="0.39" stop-color="#213737"/><stop offset="0.52" stop-color="#131f1f"/><stop offset="0.66" stop-color="#080e0e"/><stop offset="0.82" stop-color="#020303"/><stop offset="1"/></radialGradient><radialGradient id="am" cx="541.13" cy="1089.74" r="92.03" xlink:href="#al"/><radialGradient id="an" cx="539.12" cy="1088.29" r="97.67" xlink:href="#al"/><radialGradient id="ao" cx="536.94" cy="1086.85" r="103.54" xlink:href="#al"/><radialGradient id="ap" cx="534.56" cy="1085.42" r="109.65" xlink:href="#al"/><radialGradient id="aq" cx="531.98" cy="1084.02" r="115.99" xlink:href="#al"/><radialGradient id="ar" cx="529.18" cy="1082.65" r="122.57" xlink:href="#al"/><radialGradient id="as" cx="526.15" cy="1081.32" r="129.39" xlink:href="#al"/><radialGradient id="at" cx="522.88" cy="1080.04" r="136.44" xlink:href="#al"/><radialGradient id="au" cx="519.36" cy="1078.83" r="143.72" xlink:href="#al"/><radialGradient id="av" cx="515.56" cy="1077.68" r="151.24" xlink:href="#al"/><radialGradient id="aw" cx="511.49" cy="1076.62" r="158.98" xlink:href="#al"/><radialGradient id="ax" cx="507.12" cy="1075.66" r="166.94" xlink:href="#al"/><radialGradient id="ay" cx="502.44" cy="1074.81" r="175.12" xlink:href="#al"/><radialGradient id="az" cx="497.43" cy="1074.09" r="183.5" xlink:href="#al"/><radialGradient id="ba" cx="492.09" cy="1073.52" r="192.08" xlink:href="#al"/><radialGradient id="bb" cx="486.38" cy="1073.11" r="200.84" xlink:href="#al"/><radialGradient id="bc" cx="480.3" cy="1072.89" r="209.76" xlink:href="#al"/><radialGradient id="bd" cx="473.84" cy="1072.87" r="218.84" xlink:href="#al"/><radialGradient id="be" cx="466.97" cy="1073.08" r="228.05" xlink:href="#al"/><radialGradient id="bf" cx="459.67" cy="1073.54" r="237.38" xlink:href="#al"/><radialGradient id="bg" cx="451.93" cy="1074.28" r="246.79" xlink:href="#al"/><radialGradient id="bh" cx="444.47" cy="1075.32" r="256.56" xlink:href="#al"/><radialGradient id="bi" cx="446.92" cy="1076.7" r="270.58" xlink:href="#al"/><radialGradient id="bj" cx="450.02" cy="1078.45" r="285.16" xlink:href="#al"/><radialGradient id="bk" cx="453.83" cy="1080.59" r="300.31" xlink:href="#al"/><radialGradient id="bl" cx="458.42" cy="1083.17" r="316.03" xlink:href="#al"/><radialGradient id="bm" cx="463.85" cy="1086.22" r="332.34" xlink:href="#al"/><radialGradient id="bn" cx="470.19" cy="1089.79" r="349.23" xlink:href="#al"/><radialGradient id="bo" cx="477.52" cy="1093.9" r="366.72" xlink:href="#al"/><radialGradient id="bp" cx="485.91" cy="1098.62" r="384.79" xlink:href="#al"/><radialGradient id="bq" cx="495.44" cy="1103.97" r="403.47" xlink:href="#al"/><radialGradient id="br" cx="506.2" cy="1110.02" r="422.74" xlink:href="#al"/><radialGradient id="bs" cx="518.29" cy="1116.82" r="442.6" xlink:href="#al"/><radialGradient id="bt" cx="531.79" cy="1124.41" r="463.06" xlink:href="#al"/><radialGradient id="bu" cx="1218.81" cy="288.42" r="484.11" gradientTransform="translate(805.93 1093.24) rotate(-137.34)" xlink:href="#al"/><radialGradient id="bv" cx="145.46" cy="216.48" r="86.61" xlink:href="#b"/><radialGradient id="bw" cx="143.63" cy="215.02" r="92.03" xlink:href="#b"/><radialGradient id="bx" cx="141.63" cy="213.57" r="97.67" xlink:href="#b"/><radialGradient id="by" cx="139.44" cy="212.13" r="103.54" xlink:href="#b"/><radialGradient id="bz" cx="137.06" cy="210.71" r="109.65" xlink:href="#b"/><radialGradient id="ca" cx="134.48" cy="209.3" r="115.99" xlink:href="#b"/><radialGradient id="cb" cx="131.68" cy="207.93" r="122.57" xlink:href="#b"/><radialGradient id="cc" cx="128.65" cy="206.61" r="129.39" xlink:href="#b"/><radialGradient id="cd" cx="125.38" cy="205.33" r="136.44" xlink:href="#b"/><radialGradient id="ce" cx="121.86" cy="204.11" r="143.72" xlink:href="#b"/><radialGradient id="cf" cx="118.06" cy="202.97" r="151.24" xlink:href="#b"/><radialGradient id="cg" cx="113.99" cy="201.91" r="158.98" xlink:href="#b"/><radialGradient id="ch" cx="109.62" cy="200.94" r="166.94" xlink:href="#b"/><radialGradient id="ci" cx="104.94" cy="200.1" r="175.12" xlink:href="#b"/><radialGradient id="cj" cx="99.94" cy="199.38" r="183.5" xlink:href="#b"/><radialGradient id="ck" cx="94.59" cy="198.81" r="192.08" xlink:href="#b"/><radialGradient id="cl" cx="88.88" cy="198.4" r="200.84" xlink:href="#b"/><radialGradient id="cm" cx="82.8" cy="198.17" r="209.76" xlink:href="#b"/><radialGradient id="cn" cx="76.34" cy="198.15" r="218.84" xlink:href="#b"/><radialGradient id="co" cx="69.47" cy="198.36" r="228.05" xlink:href="#b"/><radialGradient id="cp" cx="62.17" cy="198.82" r="237.38" xlink:href="#b"/><radialGradient id="cq" cx="54.43" cy="199.56" r="246.79" xlink:href="#b"/><radialGradient id="cr" cx="46.97" cy="200.61" r="256.56" xlink:href="#b"/><radialGradient id="cs" cx="49.42" cy="201.99" r="270.58" xlink:href="#b"/><radialGradient id="ct" cx="52.52" cy="203.73" r="285.16" xlink:href="#b"/><radialGradient id="cu" cx="56.33" cy="205.88" r="300.31" xlink:href="#b"/><radialGradient id="cv" cx="60.92" cy="208.46" r="316.03" xlink:href="#b"/><radialGradient id="cw" cx="66.35" cy="211.51" r="332.34" xlink:href="#b"/><radialGradient id="cx" cx="72.7" cy="215.07" r="349.23" xlink:href="#b"/><radialGradient id="cy" cx="80.02" cy="219.19" r="366.72" xlink:href="#b"/><radialGradient id="cz" cx="88.41" cy="223.9" r="384.79" xlink:href="#b"/><radialGradient id="da" cx="97.94" cy="229.26" r="403.47" xlink:href="#b"/><radialGradient id="db" cx="108.7" cy="235.31" r="422.74" xlink:href="#b"/><radialGradient id="dc" cx="120.79" cy="242.1" r="442.6" xlink:href="#b"/><radialGradient id="dd" cx="134.29" cy="249.69" r="463.06" xlink:href="#b"/><radialGradient id="de" cx="149.31" cy="258.14" r="484.11" xlink:href="#b"/><radialGradient id="df" cx="1353.43" cy="672.86" r="86.61" xlink:href="#al"/><radialGradient id="dg" cx="1351.6" cy="671.41" r="92.03" xlink:href="#al"/><radialGradient id="dh" cx="1349.6" cy="669.96" r="97.67" xlink:href="#al"/><radialGradient id="di" cx="1347.41" cy="668.52" r="103.54" xlink:href="#al"/><radialGradient id="dj" cx="1345.03" cy="667.09" r="109.65" xlink:href="#al"/><radialGradient id="dk" cx="1342.45" cy="665.69" r="115.99" xlink:href="#al"/><radialGradient id="dl" cx="1339.65" cy="664.32" r="122.57" xlink:href="#al"/><radialGradient id="dm" cx="1336.62" cy="662.99" r="129.39" xlink:href="#al"/><radialGradient id="dn" cx="1333.35" cy="661.71" r="136.44" xlink:href="#al"/><radialGradient id="do" cx="1329.83" cy="660.49" r="143.72" xlink:href="#al"/><radialGradient id="dp" cx="1326.03" cy="659.35" r="151.24" xlink:href="#al"/><radialGradient id="dq" cx="1321.96" cy="658.29" r="158.98" xlink:href="#al"/><radialGradient id="dr" cx="1317.59" cy="657.33" r="166.94" xlink:href="#al"/><radialGradient id="ds" cx="1312.91" cy="656.48" r="175.12" xlink:href="#al"/><radialGradient id="dt" cx="1307.9" cy="655.76" r="183.5" xlink:href="#al"/><radialGradient id="du" cx="1302.56" cy="655.19" r="192.08" xlink:href="#al"/><radialGradient id="dv" cx="1296.85" cy="654.78" r="200.84" xlink:href="#al"/><radialGradient id="dw" cx="1290.77" cy="654.56" r="209.76" xlink:href="#al"/><radialGradient id="dx" cx="1284.31" cy="654.54" r="218.84" xlink:href="#al"/><radialGradient id="dy" cx="1277.44" cy="654.75" r="228.05" xlink:href="#al"/><radialGradient id="dz" cx="1270.14" cy="655.21" r="237.38" xlink:href="#al"/><radialGradient id="ea" cx="1262.4" cy="655.95" r="246.79" xlink:href="#al"/><radialGradient id="eb" cx="1254.94" cy="656.99" r="256.56" xlink:href="#al"/><radialGradient id="ec" cx="1257.39" cy="658.37" r="270.58" xlink:href="#al"/><radialGradient id="ed" cx="1260.49" cy="660.12" r="285.16" xlink:href="#al"/><radialGradient id="ee" cx="1264.3" cy="662.26" r="300.31" xlink:href="#al"/><radialGradient id="ef" cx="1268.89" cy="664.84" r="316.03" xlink:href="#al"/><radialGradient id="eg" cx="1274.32" cy="667.89" r="332.34" xlink:href="#al"/><radialGradient id="eh" cx="1280.67" cy="671.46" r="349.23" xlink:href="#al"/><radialGradient id="ei" cx="1287.99" cy="675.57" r="366.72" xlink:href="#al"/><radialGradient id="ej" cx="1296.38" cy="680.29" r="384.79" xlink:href="#al"/><radialGradient id="ek" cx="1305.91" cy="685.64" r="403.47" xlink:href="#al"/><radialGradient id="el" cx="1316.67" cy="691.69" r="422.74" xlink:href="#al"/><radialGradient id="em" cx="1328.76" cy="698.49" r="442.6" xlink:href="#al"/><radialGradient id="en" cx="1342.26" cy="706.08" r="463.06" xlink:href="#al"/><radialGradient id="eo" cx="408.34" cy="706.75" r="484.11" gradientTransform="translate(805.93 1093.24) rotate(-137.34)" xlink:href="#al"/><radialGradient id="ep" cx="1088.32" cy="1139.27" r="86.61" gradientTransform="translate(470.55 -1148.35) rotate(42.66)" gradientUnits="userSpaceOnUse"><stop offset="0" stop-color="#5238a8"/><stop offset="0.11" stop-color="#402c83"/><stop offset="0.24" stop-color="#2c1e5b"/><stop offset="0.38" stop-color="#1c133a"/><stop offset="0.52" stop-color="#100b21"/><stop offset="0.67" stop-color="#07050e"/><stop offset="0.83" stop-color="#020104"/><stop offset="1"/></radialGradient><radialGradient id="eq" cx="1086.49" cy="1137.81" r="92.03" xlink:href="#ep"/><radialGradient id="er" cx="1084.48" cy="1136.36" r="97.67" xlink:href="#ep"/><radialGradient id="es" cx="1082.3" cy="1134.92" r="103.54" xlink:href="#ep"/><radialGradient id="et" cx="1079.92" cy="1133.49" r="109.65" xlink:href="#ep"/><radialGradient id="eu" cx="1077.34" cy="1132.09" r="115.99" xlink:href="#ep"/><radialGradient id="ev" cx="1074.54" cy="1130.72" r="122.57" xlink:href="#ep"/><radialGradient id="ew" cx="1071.51" cy="1129.39" r="129.39" xlink:href="#ep"/><radialGradient id="ex" cx="1068.24" cy="1128.11" r="136.44" xlink:href="#ep"/><radialGradient id="ey" cx="1064.72" cy="1126.9" r="143.72" xlink:href="#ep"/><radialGradient id="ez" cx="1060.92" cy="1125.75" r="151.24" xlink:href="#ep"/><radialGradient id="fa" cx="1056.85" cy="1124.69" r="158.98" xlink:href="#ep"/><radialGradient id="fb" cx="1052.48" cy="1123.73" r="166.94" xlink:href="#ep"/><radialGradient id="fc" cx="1047.8" cy="1122.88" r="175.12" xlink:href="#ep"/><radialGradient id="fd" cx="1042.79" cy="1122.16" r="183.5" xlink:href="#ep"/><radialGradient id="fe" cx="1037.45" cy="1121.59" r="192.08" xlink:href="#ep"/><radialGradient id="ff" cx="1031.74" cy="1121.18" r="200.84" xlink:href="#ep"/><radialGradient id="fg" cx="1025.66" cy="1120.96" r="209.76" xlink:href="#ep"/><radialGradient id="fh" cx="1019.2" cy="1120.94" r="218.84" xlink:href="#ep"/><radialGradient id="fi" cx="1012.32" cy="1121.15" r="228.05" xlink:href="#ep"/><radialGradient id="fj" cx="1005.03" cy="1121.61" r="237.38" xlink:href="#ep"/><radialGradient id="fk" cx="997.29" cy="1122.35" r="246.79" xlink:href="#ep"/><radialGradient id="fl" cx="989.83" cy="1123.39" r="256.56" xlink:href="#ep"/><radialGradient id="fm" cx="992.28" cy="1124.77" r="270.58" xlink:href="#ep"/><radialGradient id="fn" cx="995.38" cy="1126.52" r="285.16" xlink:href="#ep"/><radialGradient id="fo" cx="999.19" cy="1128.66" r="300.31" xlink:href="#ep"/><radialGradient id="fp" cx="1003.78" cy="1131.24" r="316.03" xlink:href="#ep"/><radialGradient id="fq" cx="1009.21" cy="1134.3" r="332.34" xlink:href="#ep"/><radialGradient id="fr" cx="1015.55" cy="1137.86" r="349.23" xlink:href="#ep"/><radialGradient id="fs" cx="1022.88" cy="1141.98" r="366.72" xlink:href="#ep"/><radialGradient id="ft" cx="1031.27" cy="1146.69" r="384.79" xlink:href="#ep"/><radialGradient id="fu" cx="1040.8" cy="1152.05" r="403.47" xlink:href="#ep"/><radialGradient id="fv" cx="1051.56" cy="1158.09" r="422.74" xlink:href="#ep"/><radialGradient id="fw" cx="1063.65" cy="1164.89" r="442.6" xlink:href="#ep"/><radialGradient id="fx" cx="1077.15" cy="1172.48" r="463.06" xlink:href="#ep"/><radialGradient id="fy" cx="673.45" cy="240.35" r="484.11" gradientTransform="translate(805.93 1093.24) rotate(-137.34)" xlink:href="#ep"/></defs><g style="isolation:isolate"><g clip-path="url(#a)"><g style="mix-blend-mode:screen"><path d="M-28,471.59,73.74,593.19-53.16,703.88ZM70.17,592.91-26.09,477.85-49.91,697.64Z" fill="url(#b)"/><path d="M-26.69,466.29,77.2,598.74-59.14,708.83Zm100.32,132L-24.95,472.64l-30.8,230.17Z" fill="url(#c)"/><path d="M-25.18,460.78l105.88,144-146.25,109ZM77.13,604.2l-100.75-137L-62,708Z" fill="url(#d)"/><path d="M-23.46,455.06,84.23,611.19-72.43,718.65ZM80.67,610.53-22.07,461.59-68.79,713Z" fill="url(#e)"/><path d="M-21.5,449.14l109.29,169L-79.81,723.45ZM84.24,617.35-20.29,455.73-76,718.07Z" fill="url(#f)"/><path d="M-19.29,443,91.37,625.62-87.69,728.16ZM87.82,624.7l-106.08-175L-83.82,723Z" fill="url(#g)"/><path d="M-16.81,436.69l111.75,197-191,99.1ZM91.4,632.59-15.95,443.39l-76.19,284.4Z" fill="url(#h)"/><path d="M-14,430.16,98.49,642.24-105.1,737.15ZM95,641.06-13.36,436.89-101,732.43Z" fill="url(#i)"/><path d="M-11,423.44l113,228-216.7,89.93ZM98.51,650.12l-109-219.93-100,306.68Z" fill="url(#j)"/><path d="M-7.54,416.52l113,244.75-230.36,84.08ZM102,659.82-7.23,423.29l-113.4,317.79Z" fill="url(#k)"/><path d="M-3.76,409.42,108.9,671.77l-244.61,77.28ZM105.43,670.19l-109.08-254L-131.39,745Z" fill="url(#l)"/><path d="M.39,402.14,112.22,683l-259.44,69.47,1-2.41Zm108.39,279.1L.32,408.89-142.83,748.61Z" fill="url(#m)"/><path d="M4.94,394.68l110.5,300.21-274.88,60.56ZM112,693,4.69,401.41-155,751.85Z" fill="url(#n)"/><path d="M9.93,387.07l108.59,320.5-1.48.25L-172.37,758Zm105.2,318.48L9.49,393.76l-177.35,360.9Z" fill="url(#o)"/><path d="M15.37,379.31,121.43,721l-307.5,39.13ZM118.09,718.88,14.75,386-181.5,757Z" fill="url(#p)"/><path d="M21.3,371.41,124.16,735.32l-324.71,26.41,1.2-2.1ZM120.85,733,20.5,378l-216.43,380.8Z" fill="url(#q)"/><path d="M27.74,363.39l98.93,387.07L-215.84,762.7ZM123.4,748,26.76,369.91-211.18,760Z" fill="url(#r)"/><path d="M34.73,355.28l94.19,411.21L-232,763Zm91,408.61L33.57,361.71-227.27,760.49Z" fill="url(#s)"/><path d="M42.29,347.08l88.59,436.35L-249,762.55Zm85.42,433.61L41,353.42-244.24,760.25Z" fill="url(#t)"/><path d="M50.46,338.83l82,462.5-399.39-40.05ZM129.4,798.45,49,345.07-262.11,759.18Z" fill="url(#u)"/><path d="M59.28,330.54l74.49,489.68L-285.7,759.09Zm71.44,486.64-73.1-480.5L-280.9,757.2Z" fill="url(#v)"/><path d="M68.77,322.26l65.84,517.86-440.08-84.23,1.44-1.67Zm62.85,514.68L67,328.28l-367.6,425.93Z" fill="url(#w)"/><path d="M79,314l56,547.07L-326.22,751.6Zm53.08,543.75L77,319.89-321.36,750.13Z" fill="url(#x)"/><path d="M90,305.81,134.84,883.1l-482.8-137,1.53-1.54ZM132,879.63,87.83,311.57-343.08,744.83Z" fill="url(#y)"/><path d="M101.7,297.72l32.42,608.52L-370.73,739.3Zm29.66,604.91L99.44,303.34-365.83,738.23Z" fill="url(#z)"/><path d="M114.29,289.78l18.48,640.73-527.3-199.44,1.62-1.4Zm15.81,637L111.88,295.25l-501.5,435Z" fill="url(#aa)"/><path d="M127.74,282l3,673.93L-419.4,721.29Zm.4,670.05-2.93-664.73L-414.47,720.62Z" fill="url(#ab)"/><path d="M142.12,274.52,127.91,982.6-445.34,709.83l1.71-1.26ZM125.43,978.58l14-698.9L-440.4,709.35Z" fill="url(#ac)"/><path d="M157.44,267.32l-33.17,743.13L-472.38,696.56l1.76-1.2Zm-35.55,739,32.77-734-622.08,424Z" fill="url(#ad)"/><path d="M173.77,260.48l-.17,2.5-53.88,776.56L-500.52,681.33Zm-56.32,774.8,53.42-770L-495.55,681.24Z" fill="url(#ae)"/><path d="M191.14,254.06l-77,815.83L-529.77,664l1.86-1.06ZM112,1065.51l76.11-806.79L-524.79,664.09Z" fill="url(#af)"/><path d="M209.6,248.14l-102,853.38-667.7-457.16ZM105.52,1097l101-844.4-761.64,392Z" fill="url(#ag)"/><path d="M229.19,242.8,99.78,1134.43l-1.72-1.28L-591.62,622.29l2-.9Zm-131.33,887L226,247.1-586.63,622.81Z" fill="url(#ah)"/><path d="M250,238.11,90.74,1168.64l-715-571ZM89,1163.93,246.67,242.24l-865.9,356.08Z" fill="url(#ai)"/><path d="M272,234.17l-191.63,970-738.27-634ZM78.68,1199.35l189.9-961.23L-652.93,571Z" fill="url(#aj)"/><path d="M295.25,231.08,68.47,1241l-761.2-701.34Zm-228.31,1005L291.78,234.85l-979.52,305.9Z" fill="url(#ak)"/></g><g style="mix-blend-mode:screen"><path d="M124.6,144.38,22.88,22.78,149.77-87.91ZM26.45,23.06,122.7,138.12,146.53-81.67Z" fill="url(#al)"/><path d="M123.3,149.68,19.42,17.23,155.75-92.86ZM23,17.64l98.58,125.69L152.36-86.84Z" fill="url(#am)"/><path d="M121.79,155.19,15.91,11.24l146.26-109ZM19.48,11.77l100.75,137L158.65-92Z" fill="url(#an)"/><path d="M120.07,160.91,12.38,4.78,169.05-102.68ZM15.94,5.44l102.74,149L165.4-97.07Z" fill="url(#ao)"/><path d="M118.12,166.83,8.82-2.17l167.6-105.31ZM12.38-1.38,116.9,160.24,172.66-102.1Z" fill="url(#ap)"/><path d="M115.91,173,5.25-9.65,184.3-112.19ZM8.8-8.73l106.07,175L180.43-107Z" fill="url(#aq)"/><path d="M113.42,179.28,1.68-17.67l191-99.1ZM5.21-16.62,112.57,172.59l76.18-284.41Z" fill="url(#ar)"/><path d="M110.65,185.81-1.88-26.27l203.59-94.91ZM1.65-25.08,110,179.08l87.66-295.54Z" fill="url(#as)"/><path d="M107.57,192.53l-113-228L211.29-125.4ZM-1.89-34.15l109,219.93L207.13-120.9Z" fill="url(#at)"/><path d="M104.15,199.45-8.88-45.3l230.37-84.08ZM-5.39-43.85,103.85,192.69l113.39-317.8Z" fill="url(#au)"/><path d="M100.38,206.55-12.29-55.8l244.62-77.28ZM-8.82-54.22l109.08,254L228-129Z" fill="url(#av)"/><path d="M96.23,213.83-15.61-67l259.45-69.47-1,2.41ZM-12.17-65.27,96.29,207.09,239.45-132.64Z" fill="url(#aw)"/><path d="M91.67,221.29-18.82-78.92l274.87-60.56ZM-15.41-77,91.92,214.56,251.59-135.88Z" fill="url(#ax)"/><path d="M86.69,228.9-21.9-91.59l1.47-.26L269-142.07ZM-18.52-89.58,87.12,222.21l177.35-360.9Z" fill="url(#ay)"/><path d="M81.24,236.66-24.82-105.06l307.5-39.13ZM-21.47-102.91,81.86,230,278.12-141Z" fill="url(#az)"/><path d="M75.32,244.56-27.55-119.35l324.71-26.41-1.19,2.1ZM-24.24-117,76.12,238l216.43-380.8Z" fill="url(#ba)"/><path d="M68.87,252.58-30-134.49l342.51-12.24ZM-26.79-132l96.64,378.1L307.79-144Z" fill="url(#bb)"/><path d="M61.89,260.69l-94.2-411.2L328.59-147Zm-91-408.61L63,254.26,323.89-144.52Z" fill="url(#bc)"/><path d="M54.32,268.89-34.27-167.46l379.86,20.88ZM-31.1-164.72,55.65,262.55l285.2-406.83Z" fill="url(#bd)"/><path d="M46.15,277.14l-82-462.5,399.39,40.05ZM-32.79-182.48,47.64,270.9,358.72-143.21Z" fill="url(#be)"/><path d="M37.33,285.43-37.15-204.25l419.47,61.13ZM-34.1-201.21,39,279.29,377.51-141.23Z" fill="url(#bf)"/><path d="M27.84,293.71-38-224.15l440.08,84.23-1.45,1.67ZM-35-221,29.65,287.7,397.26-138.24Z" fill="url(#bg)"/><path d="M17.63,302l-56-547.07,461.2,109.47ZM-35.45-241.77,19.6,296.08,418-134.16Z" fill="url(#bh)"/><path d="M6.67,310.16-38.22-267.13l482.8,137L443-128.6ZM-35.39-263.66,8.78,304.4,439.7-128.86Z" fill="url(#bi)"/><path d="M-5.09,318.25-37.5-290.27,467.34-123.33ZM-34.75-286.66-2.83,312.63,462.44-122.26Z" fill="url(#bj)"/><path d="M-17.67,326.19-36.15-314.54,491.15-115.1l-1.62,1.4Zm-15.81-637,18.21,631.52,501.5-434.95Z" fill="url(#bk)"/><path d="M-31.13,333.94l-3-673.93L516-105.32Zm-.4-670,2.93,664.73L511.08-104.64Z" fill="url(#bl)"/><path d="M-45.5,341.45l14.2-708.08L542-93.86l-1.71,1.26Zm16.68-704.06-14,698.9L537-93.38Z" fill="url(#bm)"/><path d="M-60.83,348.65l33.17-743.13L569-80.59l-1.76,1.2Zm35.55-739L-58,343.66,564-80.31Z" fill="url(#bn)"/><path d="M-77.16,355.49-77,353-23.1-423.57,597.13-65.35Zm56.32-774.8-53.42,770L592.16-65.27Z" fill="url(#bo)"/><path d="M-94.53,361.91l77-815.83L626.38-48l-1.86,1.06Zm79.12-811.44L-91.52,357.25,621.4-48.12Z" fill="url(#bp)"/><path d="M-113,367.83l102-853.37L656.75-28.39ZM-8.91-481l-101,844.4,761.63-392Z" fill="url(#bq)"/><path d="M-132.58,373.17-3.17-518.46l1.72,1.28L688.23-6.32l-2,.9Zm131.33-887L-129.37,368.87,683.24-6.84Z" fill="url(#br)"/><path d="M-153.36,377.86,5.87-552.67l715,571ZM7.67-548-150,373.73,715.84,17.65Z" fill="url(#bs)"/><path d="M-175.36,381.8l191.63-970,738.27,634ZM17.94-583.38-172,377.85,749.55,44.93Z" fill="url(#bt)"/><path d="M-198.63,384.89,28.14-625,789.35,76.34Zm228.3-1005L-195.16,381.13,784.35,75.22Z" fill="url(#bu)"/></g><g style="mix-blend-mode:screen"><path d="M851.49,713.13l101.73,121.6L826.32,945.41Zm98.16,121.32L853.39,719.38l-23.82,219.8Z" fill="url(#bv)"/><path d="M852.8,707.82,956.68,840.27,820.34,950.37Zm100.31,132L854.53,714.18l-30.8,230.16Z" fill="url(#bw)"/><path d="M854.3,702.31l105.88,144-146.25,109ZM956.61,845.73l-100.75-137L817.45,949.48Z" fill="url(#bx)"/><path d="M856,696.6l107.7,156.12L807.05,960.18ZM960.15,852.06,857.41,703.12,810.69,954.58Z" fill="url(#by)"/><path d="M858,690.68l109.29,169L799.67,965ZM963.72,858.89,859.19,697.27,803.44,959.6Z" fill="url(#bz)"/><path d="M860.19,684.55l110.66,182.6L791.79,969.69ZM967.3,866.23l-106.07-175L795.66,964.53Z" fill="url(#ca)"/><path d="M862.67,678.23,974.42,875.17l-191,99.1ZM970.88,874.12,863.53,684.92,787.34,969.33Z" fill="url(#cb)"/><path d="M865.44,671.7,978,883.77,774.38,978.68Zm109,210.89L866.12,678.43,778.45,974Z" fill="url(#cc)"/><path d="M868.53,665l113,228L764.8,982.9ZM978,891.66,869,671.73,769,978.41Z" fill="url(#cd)"/><path d="M871.94,658.06,985,902.81,754.61,986.88Zm109.54,243.3L872.25,664.82,758.85,982.61Z" fill="url(#ce)"/><path d="M875.72,651,988.38,913.31,743.77,990.59ZM984.91,911.72l-109.08-254L748.09,986.54Z" fill="url(#cf)"/><path d="M879.87,643.67,991.7,924.5,732.26,994l1-2.41ZM988.26,922.78,879.8,650.42,736.65,990.15Z" fill="url(#cg)"/><path d="M884.42,636.22l110.5,300.2L720.05,997ZM991.5,934.56,884.17,642.94,724.5,993.38Z" fill="url(#ch)"/><path d="M889.41,628.6,998,949.1l-1.48.25L707.11,999.58Zm105.2,318.49L889,635.29,711.62,996.2Z" fill="url(#ci)"/><path d="M894.85,620.84l106.06,341.72-307.5,39.13ZM997.57,960.41,894.23,627.48,698,998.53Z" fill="url(#cj)"/><path d="M900.78,612.94l102.86,363.91-324.71,26.42,1.2-2.11Zm99.55,361.61L900,619.53,683.55,1000.32Z" fill="url(#ck)"/><path d="M907.22,604.93,1006.15,992l-342.51,12.25Zm95.66,384.62L906.24,611.44,668.3,1001.51Z" fill="url(#cl)"/><path d="M914.21,596.81,1008.4,1008l-360.9-3.48Zm91,408.62L913.05,603.25,652.21,1002Z" fill="url(#cm)"/><path d="M921.77,588.61,1010.36,1025,630.5,1004.09Zm85.42,433.62L920.45,595,635.24,1001.78Z" fill="url(#cn)"/><path d="M929.94,580.36l82,462.51L612.6,1002.81ZM1008.88,1040,928.45,586.61,617.37,1000.72Z" fill="url(#co)"/><path d="M938.76,572.08l74.49,489.67-419.47-61.13Zm71.44,486.64L937.1,578.21,598.58,998.73Z" fill="url(#cp)"/><path d="M948.26,563.79l65.83,517.86L574,997.43l1.44-1.68Zm62.84,514.68L946.44,569.81,578.84,995.75Z" fill="url(#cq)"/><path d="M958.47,555.53l56,547.07L553.26,993.14Zm53.08,543.75-55-537.85L558.12,991.66Z" fill="url(#cr)"/><path d="M969.43,547.34l44.89,577.29-482.8-137,1.53-1.54Zm42.05,573.83L967.31,553.1,536.4,986.37Z" fill="url(#cs)"/><path d="M981.18,539.25l32.42,608.52L508.75,980.84Zm29.66,604.92-31.92-599.3L513.65,979.76Z" fill="url(#ct)"/><path d="M993.77,531.31l18.48,640.74L485,972.61l1.62-1.41Zm15.81,637L991.37,536.78l-501.51,435Z" fill="url(#cu)"/><path d="M1007.23,523.56l3,673.93L460.08,962.83Zm.4,670.05-2.94-664.73L465,962.15Z" fill="url(#cv)"/><path d="M1021.6,516.06l-14.21,708.07L434.14,951.37l1.71-1.27Zm-16.69,704.06,14-698.9L439.08,950.89Z" fill="url(#cw)"/><path d="M1036.92,508.85,1003.75,1252,407.1,938.09l1.76-1.19Zm-35.55,739,32.77-734-622.08,424Z" fill="url(#cx)"/><path d="M1053.25,502l-.17,2.5L999.2,1281.08,379,922.86Zm-56.32,774.8,53.42-770L383.93,922.77Z" fill="url(#cy)"/><path d="M1070.62,495.59l-77,815.84L349.71,905.51l1.86-1ZM991.5,1307l76.11-806.79L354.69,905.63Z" fill="url(#cz)"/><path d="M1089.08,489.68,987,1343.05,319.34,885.89ZM985,1338.55l101-844.39-761.64,392Z" fill="url(#da)"/><path d="M1108.68,484.33,979.26,1376l-1.72-1.27L287.86,863.83l2-.91Zm-131.34,887,128.12-882.72L292.85,864.34Z" fill="url(#db)"/><path d="M1129.45,479.65,970.22,1410.17l-715-571Zm-161,925.82,157.72-921.7L260.25,839.86Z" fill="url(#dc)"/><path d="M1151.45,475.71l-191.63,970-738.27-634ZM958.16,1440.89l189.9-961.23L226.55,812.57Z" fill="url(#dd)"/><path d="M1174.73,472.62,948,1482.51,186.75,781.16Zm-228.31,1005L1171.26,476.38,191.74,782.29Z" fill="url(#de)"/></g><g style="mix-blend-mode:screen"><path d="M1004.08,385.91,902.36,264.31l126.9-110.68ZM905.93,264.59l96.26,115.07L1026,159.86Z" fill="url(#df)"/><path d="M1002.78,391.22,898.9,258.77l136.33-110.1Zm-100.31-132,98.58,125.69,30.79-230.16Z" fill="url(#dg)"/><path d="M1001.28,396.73l-105.88-144,146.25-109ZM899,253.31l100.75,137,38.42-240.72Z" fill="url(#dh)"/><path d="M999.55,402.44,891.86,246.32l156.67-107.46ZM895.42,247,998.16,395.92l46.73-251.46Z" fill="url(#di)"/><path d="M997.6,408.36l-109.3-169,167.6-105.31ZM891.86,240.15,996.38,401.77l55.76-262.33Z" fill="url(#dj)"/><path d="M995.39,414.49,884.73,231.89l179-102.54ZM888.28,232.81l106.07,175,65.56-273.33Z" fill="url(#dk)"/><path d="M992.9,420.81,881.16,223.87l191.05-99.1ZM884.7,224.91,992.05,414.12l76.18-284.41Z" fill="url(#dl)"/><path d="M990.13,427.34,877.6,215.27l203.6-94.91Zm-109-210.89L989.46,420.61l87.67-295.54Z" fill="url(#dm)"/><path d="M987.05,434.07l-113-228,216.69-89.93ZM877.59,207.38l109,219.93,100-306.68Z" fill="url(#dn)"/><path d="M983.63,441l-113-244.75L1101,112.16ZM874.09,197.68,983.33,434.22l113.39-317.79Z" fill="url(#do)"/><path d="M979.86,448.09,867.19,185.73l244.62-77.28ZM870.66,187.32l109.08,254L1107.49,112.5Z" fill="url(#dp)"/><path d="M975.71,455.37,863.87,174.54l259.45-69.47-1,2.41ZM867.31,176.26,975.78,448.62l143.15-339.73Z" fill="url(#dq)"/><path d="M971.15,462.82,860.66,162.62l274.87-60.57ZM864.07,164.48,971.4,456.1l159.68-350.45Z" fill="url(#dr)"/><path d="M966.17,470.44,857.58,149.94l1.47-.25,289.42-50.23ZM861,152,966.6,463.75,1144,102.84Z" fill="url(#ds)"/><path d="M960.73,478.2,854.66,136.48l307.5-39.13ZM858,138.63,961.34,471.56l196.26-371Z" fill="url(#dt)"/><path d="M954.8,486.1,851.93,122.19l324.71-26.42-1.19,2.11ZM855.24,124.49l100.36,355L1172,98.71Z" fill="url(#du)"/><path d="M948.36,494.11,849.43,107.05,1191.94,94.8ZM852.69,109.49,949.33,487.6,1187.27,97.53Z" fill="url(#dv)"/><path d="M941.37,502.23,847.17,91l360.9,3.48Zm-91-408.62,92.13,402.18L1203.37,97Z" fill="url(#dw)"/><path d="M933.8,510.43,845.21,74.07,1225.07,95ZM848.38,76.81l86.75,427.27,285.2-406.83Z" fill="url(#dx)"/><path d="M925.63,518.68l-82-462.51L1243,96.23ZM846.7,59.06l80.42,453.37L1238.2,98.32Z" fill="url(#dy)"/><path d="M916.82,527,842.33,37.29,1261.8,98.42ZM845.38,40.32l73.09,480.51L1257,100.31Z" fill="url(#dz)"/><path d="M907.32,535.25,841.49,17.39l440.08,84.22-1.45,1.68ZM844.47,20.56l64.66,508.67,367.61-425.94Z" fill="url(#ea)"/><path d="M897.11,543.51l-56-547.07,461.2,109.46ZM844-.24l55.05,537.85,398.38-430.23Z" fill="url(#eb)"/><path d="M886.15,551.7,841.26-25.59l482.8,137-1.53,1.54ZM844.09-22.13l44.18,568.07,430.91-433.27Z" fill="url(#ec)"/><path d="M874.39,559.79,842-48.73,1346.82,118.2ZM844.73-45.13l31.92,599.3,465.27-434.89Z" fill="url(#ed)"/><path d="M861.81,567.73,843.33-73l527.3,199.44-1.62,1.41ZM846-69.26l18.21,631.52,501.5-434.95Z" fill="url(#ee)"/><path d="M848.35,575.48l-3-673.93,550.12,234.66Zm-.4-670,2.93,664.73,539.68-433.27Z" fill="url(#ef)"/><path d="M834,583l14.2-708.07,573.26,272.76-1.71,1.27Zm16.68-704.06-14,698.9,579.85-429.67Z" fill="url(#eg)"/><path d="M818.65,590.19l33.17-743.13L1448.47,161l-1.76,1.19Zm35.55-739-32.77,734,622.08-424Z" fill="url(#eh)"/><path d="M802.32,597l.18-2.5L856.38-182l620.23,358.22Zm56.32-774.8-53.42,770,666.42-415.93Z" fill="url(#ei)"/><path d="M785,603.44l77-815.83,643.94,405.92-1.85,1.05ZM864.07-208,788,598.79l712.92-405.38Z" fill="url(#ej)"/><path d="M766.49,609.36,868.53-244l667.7,457.16ZM870.57-239.51l-101,844.39,761.63-392Z" fill="url(#ek)"/><path d="M746.9,614.71,876.31-276.92l1.72,1.27,689.69,510.86-2,.91Zm131.33-887L750.11,610.4l812.62-375.7Z" fill="url(#el)"/><path d="M726.12,619.39,885.36-311.13l715,571Zm161-925.82L729.43,615.27l865.89-356.09Z" fill="url(#em)"/><path d="M704.12,623.33l191.64-970,738.26,634Zm193.3-965.18L707.51,619.38,1629,286.47Z" fill="url(#en)"/><path d="M680.85,626.42,907.62-383.47l761.21,701.34Zm228.3-1005L684.32,622.66l979.51-305.91Z" fill="url(#eo)"/></g><g style="mix-blend-mode:screen"><path d="M493.09,549.26,391.36,427.66,518.26,317ZM394.93,428,491.19,543,515,323.21Z" fill="url(#ep)"/><path d="M491.78,554.57,387.9,422.12,524.23,312Zm-100.31-132,98.58,125.69,30.8-230.17Z" fill="url(#eq)"/><path d="M490.28,560.08l-105.88-144,146.25-109ZM388,416.66l100.75,137,38.41-240.73Z" fill="url(#er)"/><path d="M488.56,565.8,380.86,409.67,537.53,302.21ZM384.43,410.33,487.17,559.27l46.72-251.45Z" fill="url(#es)"/><path d="M486.6,571.72l-109.3-169L544.9,297.41ZM380.86,403.5,485.38,565.12l55.76-262.33Z" fill="url(#et)"/><path d="M484.39,577.84,373.73,395.24,552.79,292.7ZM377.28,396.16l106.07,175,65.57-273.33Z" fill="url(#eu)"/><path d="M481.91,584.17,370.16,387.22l191.05-99.1ZM373.7,388.27l107.35,189.2,76.19-284.4Z" fill="url(#ev)"/><path d="M479.14,590.69,366.61,378.62,570.2,283.71Zm-109-210.89L478.46,584l87.67-295.53Z" fill="url(#ew)"/><path d="M476.05,597.42l-113-228,216.7-89.93ZM366.59,370.73l109,219.94L575.62,284Z" fill="url(#ex)"/><path d="M472.64,604.34l-113-244.76L590,275.51ZM363.09,361,472.33,597.57l113.4-317.79Z" fill="url(#ey)"/><path d="M468.86,611.44,356.2,349.08,600.81,271.8ZM359.66,350.67l109.08,254L596.49,275.85Z" fill="url(#ez)"/><path d="M464.71,618.72,352.87,337.89l259.45-69.47-1,2.41ZM356.32,339.62,464.78,612,607.93,272.24Z" fill="url(#fa)"/><path d="M460.16,626.18,349.66,326l274.87-60.56ZM353.07,327.84,460.41,619.45,620.08,269Z" fill="url(#fb)"/><path d="M455.17,633.79,346.58,313.29l1.47-.25,289.42-50.23ZM350,315.3,455.61,627.1,633,266.19Z" fill="url(#fc)"/><path d="M449.73,641.55,343.66,299.83,651.17,260.7ZM347,302,450.35,634.91l196.25-371Z" fill="url(#fd)"/><path d="M443.8,649.45,340.94,285.54l324.71-26.42-1.2,2.11ZM344.25,287.84l100.35,355L661,262.07Z" fill="url(#fe)"/><path d="M437.36,657.47,338.43,270.4l342.51-12.25ZM341.7,272.84,438.34,651,676.28,260.88Z" fill="url(#ff)"/><path d="M430.37,665.58,336.18,254.37l360.89,3.48ZM339.4,257l92.12,402.19L692.37,260.37Z" fill="url(#fg)"/><path d="M422.81,673.78,334.22,237.43,714.08,258.3ZM337.38,240.16l86.75,427.27L709.34,260.61Z" fill="url(#fh)"/><path d="M414.64,682l-82.05-462.5,399.39,40ZM335.7,222.41l80.43,453.38L727.2,261.67Z" fill="url(#fi)"/><path d="M405.82,690.32,331.33,200.64,750.8,261.77ZM334.38,203.67l73.09,480.51L746,263.66Z" fill="url(#fj)"/><path d="M396.32,698.6,330.49,180.74,770.57,265l-1.45,1.68ZM333.47,183.92l64.67,508.66,367.6-425.94Z" fill="url(#fk)"/><path d="M386.11,706.86l-56-547.07,461.2,109.46ZM333,163.11,388.08,701,786.46,270.73Z" fill="url(#fl)"/><path d="M375.15,715.05,330.26,137.76l482.8,137-1.53,1.54Zm-42-573.82,44.17,568.06L808.18,276Z" fill="url(#fm)"/><path d="M363.39,723.14,331,114.62,835.83,281.55ZM333.73,118.23l31.93,599.29L830.93,282.63Z" fill="url(#fn)"/><path d="M350.81,731.08,332.33,90.34l527.3,199.44L858,291.19ZM335,94.09l18.21,631.52,501.5-434.95Z" fill="url(#fo)"/><path d="M337.35,738.83l-3-673.93L884.5,299.56ZM337,68.78l2.94,664.73L879.56,300.24Z" fill="url(#fp)"/><path d="M323,746.33,337.19,38.26,910.44,311l-1.71,1.27ZM339.66,42.28l-14,698.89L905.49,311.5Z" fill="url(#fq)"/><path d="M307.65,753.54,340.83,10.41,937.48,324.3l-1.76,1.2Zm35.55-739-32.76,734,622.08-424Z" fill="url(#fr)"/><path d="M291.33,760.38l.17-2.5L345.38-18.68,965.62,339.53Zm56.32-774.8-53.42,770L960.65,339.62Z" fill="url(#fs)"/><path d="M274,766.8,350.92-49l644,405.91L993,357.94ZM353.08-44.65,277,762.14,989.89,356.77Z" fill="url(#ft)"/><path d="M255.5,772.72l102-853.38L1025.23,376.5ZM359.58-76.16l-101,844.39,761.64-392Z" fill="url(#fu)"/><path d="M235.9,778.06,365.32-113.57l1.72,1.28,689.68,510.85-2,.91ZM367.23-109,239.11,773.76l812.62-375.71Z" fill="url(#fv)"/><path d="M215.13,782.75,374.36-147.78l715,571Zm161-925.82L218.43,778.62l865.9-356.09Z" fill="url(#fw)"/><path d="M193.13,786.68l191.63-970,738.27,634ZM386.42-178.49,196.51,782.74,1118,449.82Z" fill="url(#fx)"/><path d="M169.85,789.78,396.63-220.11l761.2,701.34Zm228.3-1005L173.32,786l979.51-305.9Z" fill="url(#fy)"/></g></g></g></svg>